<svg width="146" height="32" viewBox="0 0 146 32" fill="none" xmlns="http://www.w3.org/2000/svg">
<path fill-rule="evenodd" clip-rule="evenodd" d="M82.1734 10.317C81.3659 9.25703 80.1413 8.72705 78.501 8.72705C76.8213 8.72705 75.4372 9.18506 74.3474 10.1011C73.2577 11.0041 72.5719 12.2604 72.2899 13.87L71.6938 17.3444C71.399 19.1111 71.6425 20.5441 72.4245 21.6433C73.2192 22.7295 74.4307 23.2725 76.0585 23.2725C77.7896 23.2725 79.1997 22.8145 80.2888 21.8984C81.3785 20.9824 82.0646 19.6869 82.3462 18.0118L82.9428 14.5374C83.2371 12.7707 82.9808 11.364 82.1734 10.317ZM75.3858 14.1447C75.6935 12.4435 76.597 11.5929 78.0965 11.5929C78.8146 11.5929 79.3211 11.8351 79.6161 12.3192C79.9238 12.7903 80.0072 13.4316 79.8657 14.2429L79.2504 17.8351C79.1096 18.6465 78.8019 19.2813 78.3274 19.7393C77.8537 20.1842 77.2444 20.4066 76.5009 20.4066C75.8089 20.4066 75.3084 20.1645 75.0007 19.6803C74.6931 19.1831 74.6104 18.5221 74.7512 17.6977L75.3858 14.1447Z" fill="#526ED3"/>
<path d="M5.35337 8.98219H2.64221C2.44992 8.98219 2.33447 9.08688 2.29601 9.29625L0.00786732 22.6443C-0.0305929 22.893 0.0719596 23.0173 0.315517 23.0173H2.66141C2.89215 23.0173 3.01399 22.9127 3.02681 22.7033L3.46903 20.0926C3.89205 17.4099 4.18681 15.3814 4.35346 14.0074H4.44961C4.52652 14.413 4.83418 15.6759 5.37257 17.7958L5.94947 19.7981C6.01357 19.9943 6.14179 20.0926 6.33408 20.0926H8.08385C8.25049 20.0926 8.37861 20.014 8.46837 19.857L9.69894 17.894C10.7116 16.2059 11.4681 14.8776 11.968 13.9092L12.0641 13.9288C11.4744 16.7686 11.0707 18.8428 10.8528 20.1515L10.4298 22.6443C10.4041 22.893 10.5066 23.0173 10.7374 23.0173H13.0832C13.2883 23.0173 13.4101 22.9127 13.4486 22.7033L15.7367 9.35521C15.7752 9.10654 15.6726 8.98219 15.4291 8.98219H12.6218C12.4423 8.98219 12.3076 9.05416 12.218 9.19811L10.0644 12.5941C9.46184 13.5625 8.67992 14.9168 7.71848 16.6573H7.66082C7.48138 15.7936 7.16083 14.4523 6.69935 12.6333L5.73797 9.27665C5.6867 9.08033 5.55848 8.98219 5.35337 8.98219Z" fill="#526ED3"/>
<path d="M21.2322 8.98219H18.8671C18.662 8.98219 18.5402 9.08688 18.5017 9.29625L16.1944 22.6443C16.1687 22.893 16.2712 23.0173 16.502 23.0173H18.8863C19.0786 23.0173 19.1939 22.9127 19.2324 22.7033L21.5398 9.35521C21.5783 9.10654 21.4758 8.98219 21.2322 8.98219Z" fill="#526ED3"/>
<path d="M27.1695 8.98219H24.6314C24.4263 8.98219 24.3109 9.08688 24.2852 9.29625L21.9779 22.6443C21.9395 22.893 22.0356 23.0173 22.2663 23.0173H24.6314C24.8237 23.0173 24.9391 22.9127 24.9775 22.7033L25.4775 19.7588C25.7338 18.3062 25.9774 16.3694 26.2082 13.9484L26.285 13.9092C26.6184 15.5581 27.0605 17.1155 27.6117 18.5811L29.1308 22.7425C29.2077 22.9257 29.3359 23.0173 29.5154 23.0173H32.0342C32.2394 23.0173 32.3612 22.9127 32.3997 22.7033L34.707 9.35521C34.7454 9.10654 34.6429 8.98219 34.3994 8.98219H32.0536C31.8613 8.98219 31.7459 9.08688 31.7074 9.29625L31.1306 12.6725C30.8101 14.6093 30.5537 16.4218 30.3614 18.11L30.2652 18.1295C29.9064 16.7424 29.509 15.3356 29.0732 13.9092L27.5541 9.25703C27.5157 9.07382 27.3874 8.98219 27.1695 8.98219Z" fill="#526ED3"/>
<path fill-rule="evenodd" clip-rule="evenodd" d="M42.3321 8.98219H37.8134C37.6083 8.98219 37.4928 9.08688 37.4672 9.29625L35.1598 22.6443C35.1214 22.893 35.2175 23.0173 35.4483 23.0173H40.0438C41.7487 23.0173 43.1076 22.6181 44.1203 21.8199C45.1458 21.0216 45.8124 19.6934 46.1201 17.8351L46.6776 14.5963C46.9853 12.7511 46.7161 11.3574 45.87 10.4152C45.024 9.45986 43.8447 8.98219 42.3321 8.98219ZM38.621 20.1711L40.0631 11.8284H41.9859C42.6781 11.8284 43.1588 12.0183 43.428 12.3978C43.6972 12.7642 43.7613 13.3661 43.6203 14.2037L43.0242 17.6977C42.7294 19.3466 41.8961 20.1711 40.5246 20.1711H38.621Z" fill="#526ED3"/>
<path d="M60.3722 8.98219H57.661C57.4688 8.98219 57.3533 9.08688 57.3149 9.29625L55.0267 22.6443C54.9883 22.893 55.0909 23.0173 55.3344 23.0173H57.6803C57.911 23.0173 58.0327 22.9127 58.0456 22.7033L58.4879 20.0926C58.9109 17.4099 59.2057 15.3814 59.3723 14.0074H59.4685C59.5454 14.413 59.8531 15.6759 60.3915 17.7958L60.9683 19.7981C61.0325 19.9943 61.1607 20.0926 61.353 20.0926H63.1027C63.2694 20.0926 63.3975 20.014 63.4872 19.857L64.7178 17.894C65.7305 16.2059 66.4868 14.8776 66.9868 13.9092L67.083 13.9288C66.4932 16.7686 66.0894 18.8428 65.8715 20.1515L65.4485 22.6443C65.4229 22.893 65.5255 23.0173 65.7561 23.0173H68.1021C68.3071 23.0173 68.429 22.9127 68.4674 22.7033L70.7556 9.35521C70.794 9.10654 70.6915 8.98219 70.448 8.98219H67.6407C67.4611 8.98219 67.3265 9.05416 67.2369 9.19811L65.0832 12.5941C64.4807 13.5625 63.6987 14.9168 62.7374 16.6573H62.6796C62.5001 15.7936 62.1797 14.4523 61.7182 12.6333L60.7568 9.27665C60.7056 9.08033 60.5773 8.98219 60.3722 8.98219Z" fill="#526ED3"/>
<path d="M89.0234 8.98219H86.4856C86.28 8.98219 86.1645 9.08688 86.1392 9.29625L83.8315 22.6443C83.7935 22.893 83.8896 23.0173 84.1205 23.0173H86.4856C86.6778 23.0173 86.7932 22.9127 86.8312 22.7033L87.331 19.7588C87.588 18.3062 87.8316 16.3694 88.0618 13.9484L88.1393 13.9092C88.4722 15.5581 88.9147 17.1155 89.4659 18.5811L90.9848 22.7425C91.0615 22.9257 91.1896 23.0173 91.3691 23.0173H93.8884C94.0932 23.0173 94.2154 22.9127 94.2534 22.7033L96.5611 9.35521C96.5998 9.10654 96.497 8.98219 96.2534 8.98219H93.9077C93.7148 8.98219 93.6001 9.08688 93.5614 9.29625L92.9848 12.6725C92.6638 14.6093 92.4075 16.4218 92.2153 18.11L92.1192 18.1295C91.7602 16.7424 91.3632 15.3356 90.9274 13.9092L89.4078 9.25703C89.3698 9.07382 89.2417 8.98219 89.0234 8.98219Z" fill="#526ED3"/>
<path d="M107.589 8.98219H99.6866C99.4945 8.98219 99.379 9.08688 99.3403 9.29625L97.014 22.6443C96.9879 22.893 97.0907 23.0173 97.3216 23.0173H105.532C105.737 23.0173 105.859 22.9127 105.898 22.7033L106.243 20.5635C106.269 20.3149 106.167 20.1907 105.936 20.1907H100.494L100.994 17.2658H105.628C105.82 17.2658 105.936 17.1612 105.974 16.9518L106.339 14.8906C106.378 14.642 106.282 14.5177 106.051 14.5177H101.475L101.956 11.7892H107.186C107.378 11.7892 107.493 11.6846 107.532 11.4752L107.897 9.35521C107.936 9.10654 107.833 8.98219 107.589 8.98219Z" fill="#526ED3"/>
<path d="M111.748 8.98219H109.248C109.133 8.98219 109.049 9.02141 108.998 9.09993C108.947 9.16536 108.941 9.25052 108.979 9.35521L111.536 17.9726L110.69 22.6443C110.652 22.893 110.754 23.0173 110.998 23.0173H113.402C113.594 23.0173 113.709 22.9127 113.747 22.7033L114.613 18.0314L120.054 9.3944C120.118 9.27662 120.131 9.17845 120.093 9.09993C120.054 9.02141 119.971 8.98219 119.843 8.98219H117.19C117.023 8.98219 116.895 9.06067 116.805 9.2177L113.536 15.0674H113.498L112.094 9.27665C112.056 9.08033 111.94 8.98219 111.748 8.98219Z" fill="#526ED3"/>
<path d="M133.127 8.98219H125.224C125.032 8.98219 124.916 9.08688 124.878 9.29625L122.551 22.6443C122.526 22.893 122.629 23.0173 122.859 23.0173H131.07C131.275 23.0173 131.397 22.9127 131.435 22.7033L131.781 20.5635C131.807 20.3149 131.704 20.1907 131.474 20.1907H126.032L126.532 17.2658H131.166C131.358 17.2658 131.474 17.1612 131.512 16.9518L131.877 14.8906C131.915 14.642 131.82 14.5177 131.589 14.5177H127.013L127.493 11.7892H132.724C132.916 11.7892 133.031 11.6846 133.069 11.4752L133.435 9.35521C133.473 9.10654 133.371 8.98219 133.127 8.98219Z" fill="#526ED3"/>
<path d="M138.516 8.98219H136.094C135.901 8.98219 135.786 9.08688 135.747 9.29625L134.324 17.4426C134.029 19.2485 134.26 20.6683 135.016 21.7022C135.786 22.7359 136.959 23.2529 138.535 23.2529C140.228 23.2529 141.574 22.8146 142.573 21.9378C143.586 21.0479 144.227 19.7916 144.496 18.1689L145.996 9.35521C146.022 9.10654 145.92 8.98219 145.689 8.98219H143.265C143.073 8.98219 142.958 9.08688 142.92 9.29625L141.458 17.9332C141.318 18.7315 141.029 19.3401 140.593 19.7588C140.17 20.1646 139.632 20.3674 138.978 20.3674C138.337 20.3674 137.869 20.1514 137.574 19.7195C137.279 19.2745 137.202 18.6334 137.343 17.7958L138.824 9.35521C138.862 9.10654 138.76 8.98219 138.516 8.98219Z" fill="#526ED3"/>
<path d="M53.4361 15.7936H48.7445C48.5522 15.7936 48.4367 15.8983 48.3983 16.1077L48.0522 18.11C48.0138 18.3586 48.11 18.483 48.3406 18.483H53.0323C53.2246 18.483 53.34 18.3848 53.3785 18.1885L53.7246 16.1667C53.7631 15.918 53.6669 15.7936 53.4361 15.7936Z" fill="#526ED3"/>
<path d="M120.453 20.2888C120.171 19.9093 119.767 19.7195 119.242 19.7195C118.767 19.7195 118.37 19.8636 118.049 20.1515C117.729 20.4263 117.524 20.7927 117.434 21.2507C117.332 21.8003 117.421 22.2649 117.704 22.6443C117.998 23.0238 118.402 23.2137 118.915 23.2137C119.402 23.2137 119.806 23.0762 120.126 22.8014C120.46 22.5135 120.665 22.1405 120.741 21.6825C120.831 21.1198 120.735 20.6553 120.453 20.2888Z" fill="#526ED3"/>
</svg>
